<?xml version="1.0" encoding="UTF-8"?>
<svg width="200px" height="200px" viewBox="0 0 200 200" version="1.1" xmlns="http://www.w3.org/2000/svg">
    <g id="globe" fill="none" stroke="#FFFFFF" stroke-width="1">
        <!-- Equator -->
        <circle cx="100" cy="100" r="80" />
        
        <!-- Latitude lines -->
        <path d="M20,100 C20,55 100,55 180,55" />
        <path d="M20,145 C20,100 100,100 180,100" />
        <path d="M20,55 C20,100 100,100 180,100" />
        
        <!-- Longitude lines -->
        <path d="M100,20 L100,180" />
        <path d="M55,20 C55,20 55,100 55,180" />
        <path d="M145,20 C145,20 145,100 145,180" />
        
        <!-- Continents (simplified) -->
        <path fill="#3498db" fill-opacity="0.3" d="M70,70 C90,60 120,80 130,70 C140,60 150,80 140,90 C130,100 110,90 100,100 C90,110 80,90 70,70 Z" />
        <path fill="#3498db" fill-opacity="0.3" d="M60,120 C80,110 100,130 120,120 C130,110 140,130 130,140 C120,150 100,140 90,150 C80,160 70,140 60,120 Z" />
    </g>
</svg>
